<?xml version="1.0" encoding="UTF-8"?>
<svg id="Layer_2" data-name="Layer 2" xmlns="http://www.w3.org/2000/svg" viewBox="0 0 123.98 123.98">
  <defs>
    <style>
      .cls-1, .cls-2, .cls-3 {
        fill: none;
        stroke: #2b235c;
        stroke-width: 4px;
      }

      .cls-1, .cls-3 {
        stroke-miterlimit: 10;
      }

      .cls-2 {
        stroke-linejoin: round;
      }

      .cls-3 {
        stroke-linecap: round;
      }

      .cls-4 {
        fill: #2b235c;
        stroke-width: 0px;
      }
    </style>
  </defs>
  <path class="cls-2" d="M81.52,89.2c-6.82,10.13-18.39,16.79-31.53,16.79-20.99,0-38-17.01-38-38,0-16.97,11.12-31.34,26.47-36.21-4.09,6.05-6.47,13.35-6.47,21.21,0,20.99,17.01,38,38,38,4.02,0,7.89-.62,11.53-1.79Z"/>
  <path class="cls-4" d="M46.05,71.84l-5.87,3.25c-.74.41-1.68.19-2.14-.51-1.98-3.06-3.54-6.43-4.57-10.02-.41-1.42,1.17-2.59,2.42-1.82l10.22,6.29c1.06.65,1.02,2.21-.07,2.81Z"/>
  <path class="cls-3" d="M21.3,69.49l2.49,2.07c.69.58,1.53.58,2.22,0l2.49-2.07"/>
  <path class="cls-2" d="M90.49,55.49c0,7.18-5.82,13-13,13h-21c7.54,0,8.26-7.38,8.15-11.02h0c-.03-1.2-.15-1.98-.15-1.98,0-7.18,5.82-13,13-13s13,5.82,13,13Z"/>
  <path class="cls-1" d="M64.64,57.46c-.1-.64-.15-1.3-.15-1.97,0,0,.12.78.15,1.97Z"/>
  <g>
    <path class="cls-4" d="M56.35,24.04c-.52.08-.54.82-.02.93,2.87.6,6.39,1.7,6.38,3.5,0,.38,2.33-2.39,2.34-4.59,0-2.03-2.3-3.49-2.3-3.49-.01,2.23-3.52,3.22-6.4,3.65Z"/>
    <path class="cls-4" d="M64.4,16.81c-.08-.52-.82-.54-.93-.02-.6,2.87-1.7,6.39-3.5,6.38-.38,0,2.39,2.33,4.59,2.34,2.03,0,3.49-2.3,3.49-2.3-2.23-.01-3.22-3.52-3.65-6.4Z"/>
    <path class="cls-4" d="M71.64,24.86c.52-.08.54-.82.02-.93-2.87-.6-6.39-1.7-6.38-3.5,0-.38-2.33,2.39-2.34,4.59,0,2.03,2.3,3.49,2.3,3.49.01-2.23,3.52-3.22,6.4-3.65Z"/>
    <path class="cls-4" d="M63.58,32.09c.08.52.82.54.93.02.6-2.87,1.7-6.39,3.5-6.38.38,0-2.39-2.33-4.59-2.34-2.03,0-3.49,2.3-3.49,2.3,2.23.01,3.22,3.52,3.65,6.4Z"/>
  </g>
  <g>
    <path class="cls-4" d="M98.45,73.93c-.65.1-.67,1.02-.03,1.16,3.59.75,7.98,2.12,7.97,4.38,0,.47,2.91-2.99,2.93-5.73.01-2.54-2.88-4.36-2.88-4.36-.01,2.78-4.4,4.02-7.99,4.56Z"/>
    <path class="cls-4" d="M108.51,64.91c-.1-.65-1.02-.67-1.16-.03-.75,3.59-2.12,7.98-4.38,7.97-.47,0,2.99,2.91,5.73,2.93,2.54.01,4.36-2.88,4.36-2.88-2.78-.01-4.02-4.4-4.56-7.99Z"/>
    <path class="cls-4" d="M117.54,74.96c.65-.1.67-1.02.03-1.16-3.59-.75-7.98-2.12-7.97-4.38,0-.47-2.91,2.99-2.93,5.73-.01,2.54,2.88,4.36,2.88,4.36.01-2.78,4.4-4.02,7.99-4.56Z"/>
    <path class="cls-4" d="M107.48,83.99c.1.65,1.02.67,1.16.03.75-3.59,2.12-7.98,4.38-7.97.47,0-2.99-2.91-5.73-2.93-2.54-.01-4.36,2.88-4.36,2.88,2.78.01,4.02,4.4,4.56,7.99Z"/>
  </g>
  <g>
    <path class="cls-4" d="M109.72,34.22c-.29.04-.3.46-.01.52,1.61.33,3.57.95,3.57,1.96,0,.21,1.3-1.34,1.31-2.57,0-1.14-1.29-1.95-1.29-1.95,0,1.25-1.97,1.8-3.58,2.04Z"/>
    <path class="cls-4" d="M114.22,30.17c-.04-.29-.46-.3-.52-.01-.33,1.61-.95,3.57-1.96,3.57-.21,0,1.34,1.3,2.57,1.31,1.14,0,1.95-1.29,1.95-1.29-1.25,0-1.8-1.97-2.04-3.58Z"/>
    <path class="cls-4" d="M118.27,34.68c.29-.04.3-.46.01-.52-1.61-.33-3.57-.95-3.57-1.96,0-.21-1.3,1.34-1.31,2.57,0,1.14,1.29,1.95,1.29,1.95,0-1.25,1.97-1.8,3.58-2.04Z"/>
    <path class="cls-4" d="M113.76,38.72c.04.29.46.3.52.01.33-1.61.95-3.57,1.96-3.57.21,0-1.34-1.3-2.57-1.31-1.14,0-1.95,1.29-1.95,1.29,1.25,0,1.8,1.97,2.04,3.58Z"/>
  </g>
</svg>